<svg width="109" height="31" viewBox="0 0 109 31" fill="none" xmlns="http://www.w3.org/2000/svg">
<path d="M5.1 13.04C5.74 11.8133 6.5 10.8533 7.38 10.16C8.26 9.45333 9.3 9.1 10.5 9.1C11.4467 9.1 12.2067 9.30667 12.78 9.72L12.46 13.42C12.3933 13.66 12.2933 13.8333 12.16 13.94C12.04 14.0333 11.8733 14.08 11.66 14.08C11.46 14.08 11.16 14.0467 10.76 13.98C10.3733 13.9133 9.99333 13.88 9.62 13.88C9.07333 13.88 8.58667 13.96 8.16 14.12C7.73333 14.28 7.34667 14.5133 7 14.82C6.66667 15.1133 6.36667 15.4733 6.1 15.9C5.84667 16.3267 5.60667 16.8133 5.38 17.36V30H0.44V9.48H3.34C3.84667 9.48 4.2 9.57333 4.4 9.76C4.6 9.93333 4.73333 10.2533 4.8 10.72L5.1 13.04ZM27.9959 17.38C27.9959 16.74 27.9026 16.14 27.7159 15.58C27.5426 15.0067 27.2759 14.5067 26.9159 14.08C26.5559 13.6533 26.0959 13.32 25.5359 13.08C24.9893 12.8267 24.3493 12.7 23.6159 12.7C22.1893 12.7 21.0626 13.1067 20.2359 13.92C19.4226 14.7333 18.9026 15.8867 18.6759 17.38H27.9959ZM18.5759 20.36C18.6559 21.4133 18.8426 22.3267 19.1359 23.1C19.4293 23.86 19.8159 24.4933 20.2959 25C20.7759 25.4933 21.3426 25.8667 21.9959 26.12C22.6626 26.36 23.3959 26.48 24.1959 26.48C24.9959 26.48 25.6826 26.3867 26.2559 26.2C26.8426 26.0133 27.3493 25.8067 27.7759 25.58C28.2159 25.3533 28.5959 25.1467 28.9159 24.96C29.2493 24.7733 29.5693 24.68 29.8759 24.68C30.2893 24.68 30.5959 24.8333 30.7959 25.14L32.2159 26.94C31.6693 27.58 31.0559 28.12 30.3759 28.56C29.6959 28.9867 28.9826 29.3333 28.2359 29.6C27.5026 29.8533 26.7493 30.0333 25.9759 30.14C25.2159 30.2467 24.4759 30.3 23.7559 30.3C22.3293 30.3 21.0026 30.0667 19.7759 29.6C18.5493 29.12 17.4826 28.42 16.5759 27.5C15.6693 26.5667 14.9559 25.42 14.4359 24.06C13.9159 22.6867 13.6559 21.1 13.6559 19.3C13.6559 17.9 13.8826 16.5867 14.3359 15.36C14.7893 14.12 15.4359 13.0467 16.2759 12.14C17.1293 11.22 18.1626 10.4933 19.3759 9.96C20.6026 9.42667 21.9826 9.16 23.5159 9.16C24.8093 9.16 26.0026 9.36667 27.0959 9.78C28.1893 10.1933 29.1293 10.8 29.9159 11.6C30.7026 12.3867 31.3159 13.36 31.7559 14.52C32.2093 15.6667 32.4359 16.98 32.4359 18.46C32.4359 19.2067 32.3559 19.7133 32.1959 19.98C32.0359 20.2333 31.7293 20.36 31.2759 20.36H18.5759ZM40.7631 12C41.1765 11.5867 41.6098 11.2067 42.0631 10.86C42.5298 10.5 43.0165 10.2 43.5231 9.96C44.0431 9.70667 44.5965 9.51333 45.1831 9.38C45.7698 9.23333 46.4098 9.16 47.1031 9.16C48.2231 9.16 49.2165 9.35333 50.0831 9.74C50.9498 10.1133 51.6698 10.6467 52.2431 11.34C52.8298 12.02 53.2698 12.84 53.5631 13.8C53.8698 14.7467 54.0231 15.7933 54.0231 16.94V30H49.0831V16.94C49.0831 15.6867 48.7965 14.72 48.2231 14.04C47.6498 13.3467 46.7765 13 45.6031 13C44.7498 13 43.9498 13.1933 43.2031 13.58C42.4565 13.9667 41.7498 14.4933 41.0831 15.16V30H36.1431V9.48H39.1631C39.8031 9.48 40.2231 9.78 40.4231 10.38L40.7631 12ZM65.2878 30.32C63.5011 30.32 62.1278 29.82 61.1678 28.82C60.2211 27.8067 59.7478 26.4133 59.7478 24.64V13.18H57.6478C57.3811 13.18 57.1545 13.0933 56.9678 12.92C56.7811 12.7467 56.6878 12.4867 56.6878 12.14V10.18L59.9878 9.64L61.0278 4.04C61.0945 3.77333 61.2211 3.56666 61.4078 3.42C61.5945 3.27333 61.8345 3.2 62.1278 3.2H64.6878V9.66H70.1678V13.18H64.6878V24.3C64.6878 24.94 64.8411 25.44 65.1478 25.8C65.4678 26.16 65.9011 26.34 66.4478 26.34C66.7545 26.34 67.0078 26.3067 67.2078 26.24C67.4211 26.16 67.6011 26.08 67.7478 26C67.9078 25.92 68.0478 25.8467 68.1678 25.78C68.2878 25.7 68.4078 25.66 68.5278 25.66C68.6745 25.66 68.7945 25.7 68.8878 25.78C68.9811 25.8467 69.0811 25.9533 69.1878 26.1L70.6678 28.5C69.9478 29.1 69.1211 29.5533 68.1878 29.86C67.2545 30.1667 66.2878 30.32 65.2878 30.32ZM84.1706 21.24C82.744 21.3067 81.544 21.4333 80.5706 21.62C79.5973 21.7933 78.8173 22.02 78.2306 22.3C77.644 22.58 77.224 22.9067 76.9706 23.28C76.7173 23.6533 76.5906 24.06 76.5906 24.5C76.5906 25.3667 76.844 25.9867 77.3506 26.36C77.8706 26.7333 78.544 26.92 79.3706 26.92C80.384 26.92 81.2573 26.74 81.9906 26.38C82.7373 26.0067 83.464 25.4467 84.1706 24.7V21.24ZM72.8506 12.34C75.2106 10.18 78.0506 9.1 81.3706 9.1C82.5706 9.1 83.644 9.3 84.5906 9.7C85.5373 10.0867 86.3373 10.6333 86.9906 11.34C87.644 12.0333 88.1373 12.8667 88.4706 13.84C88.8173 14.8133 88.9906 15.88 88.9906 17.04V30H86.7506C86.284 30 85.924 29.9333 85.6706 29.8C85.4173 29.6533 85.2173 29.3667 85.0706 28.94L84.6306 27.46C84.1106 27.9267 83.604 28.34 83.1106 28.7C82.6173 29.0467 82.104 29.34 81.5706 29.58C81.0373 29.82 80.464 30 79.8506 30.12C79.2506 30.2533 78.584 30.32 77.8506 30.32C76.984 30.32 76.184 30.2067 75.4506 29.98C74.7173 29.74 74.084 29.3867 73.5506 28.92C73.0173 28.4533 72.604 27.8733 72.3106 27.18C72.0173 26.4867 71.8706 25.68 71.8706 24.76C71.8706 24.24 71.9573 23.7267 72.1306 23.22C72.304 22.7 72.584 22.2067 72.9706 21.74C73.3706 21.2733 73.884 20.8333 74.5106 20.42C75.1373 20.0067 75.904 19.6467 76.8106 19.34C77.7306 19.0333 78.7973 18.7867 80.0106 18.6C81.224 18.4 82.6106 18.28 84.1706 18.24V17.04C84.1706 15.6667 83.8773 14.6533 83.2906 14C82.704 13.3333 81.8573 13 80.7506 13C79.9506 13 79.284 13.0933 78.7506 13.28C78.2306 13.4667 77.7706 13.68 77.3706 13.92C76.9706 14.1467 76.604 14.3533 76.2706 14.54C75.9506 14.7267 75.5906 14.82 75.1906 14.82C74.844 14.82 74.5506 14.7333 74.3106 14.56C74.0706 14.3733 73.8773 14.16 73.7306 13.92L72.8506 12.34ZM98.6431 0.279999V30H93.7031V0.279999H98.6431Z" fill="white"/>
<path d="M102.845 27.28C102.845 26.8667 102.918 26.4733 103.065 26.1C103.225 25.7267 103.438 25.4067 103.705 25.14C103.972 24.8733 104.292 24.66 104.665 24.5C105.038 24.34 105.438 24.26 105.865 24.26C106.292 24.26 106.685 24.34 107.045 24.5C107.418 24.66 107.738 24.8733 108.005 25.14C108.285 25.4067 108.505 25.7267 108.665 26.1C108.825 26.4733 108.905 26.8667 108.905 27.28C108.905 27.7067 108.825 28.1067 108.665 28.48C108.505 28.84 108.285 29.1533 108.005 29.42C107.738 29.6867 107.418 29.8933 107.045 30.04C106.685 30.2 106.292 30.28 105.865 30.28C105.438 30.28 105.038 30.2 104.665 30.04C104.292 29.8933 103.972 29.6867 103.705 29.42C103.438 29.1533 103.225 28.84 103.065 28.48C102.918 28.1067 102.845 27.7067 102.845 27.28Z" fill="#1C273B"/>
</svg>
